<svg data-v-fde0c5aa="" xmlns="http://www.w3.org/2000/svg" viewBox="0 0 300 300" class="iconLeft"><!----><defs data-v-fde0c5aa=""><!----></defs><rect data-v-fde0c5aa="" fill="transparent" x="0" y="0" width="300px" height="300px" class="logo-background-square"></rect><defs data-v-fde0c5aa=""><!----></defs><g data-v-fde0c5aa="" id="c0ed200e-a68e-41c2-a849-75c2553a991a" fill="#000000" transform="matrix(2.175566491492993,0,0,2.175566491492993,91.74169352946328,138.91548905262135)"><path d="M6.05 0.48L6.12 0.48C4.07 7.31 2.66 9.03 1.55 9.45L1.55 9.32C1.55 9.00 1.61 8.43 1.85 7.88C1.65 7.73 1.40 7.64 1.15 7.64C0.52 7.64-0.04 7.88-0.04 8.69C-0.04 9.94 0.46 10.61 1.16 10.61C2.83 10.61 4.30 8.62 6.19 2.59L6.12 4.23L5.61 10.43C5.78 10.54 6.03 10.61 6.29 10.61C6.80 10.61 7.22 10.43 7.48 9.79L10.53 2.62L9.59 8.95C9.39 10.23 10.22 10.61 10.99 10.61C11.80 10.61 12.63 10.02 13.40 9.23C13.48 9.13 13.52 9.02 13.52 8.92C13.52 8.78 13.44 8.65 13.29 8.58C12.96 8.86 12.31 9.28 11.86 9.28C11.48 9.28 11.28 9.07 11.40 8.25L12.54 0.18C12.38 0.07 12.03 0 11.77 0C11.26 0 10.82 0.27 10.57 0.90L7.32 8.22L7.83 0.77L7.84 0.77C8.16 0.77 8.33 0.49 8.33 0.22C8.33 0.08 8.27-0.06 8.13-0.14C7.53 0.20 6.34-0.42 5.18-0.42C3.53-0.42 2.86 0.59 2.86 1.47C2.86 2.17 3.28 2.80 3.99 2.80C4.19 2.80 4.38 2.76 4.59 2.66C4.42 2.46 4.31 2.16 4.31 1.85C4.31 1.19 4.77 0.48 6.05 0.48ZM18.24 4.72C18.24 4.09 17.92 3.37 16.65 3.37C14.34 3.37 13.13 6.29 13.13 8.11C13.13 9.83 14.20 10.61 15.51 10.61C16.87 10.61 18.49 9.77 19.46 8.36C19.61 8.11 19.47 7.81 19.11 7.88C18.51 8.68 17.22 9.39 16.21 9.39C15.57 9.39 15.05 9.11 14.91 8.36C17.61 6.86 18.24 5.91 18.24 4.72ZM16.74 4.47C16.98 4.47 17.15 4.69 17.15 5.01C17.15 5.92 16.23 6.90 14.87 7.76C14.91 6.78 15.36 4.47 16.74 4.47ZM19.29 4.87C19.42 4.76 19.50 4.70 19.57 4.70C19.70 4.70 19.77 4.83 19.71 5.05L18.56 10.43C18.73 10.54 18.97 10.61 19.22 10.61C19.73 10.61 20.26 10.37 20.40 9.73L21.25 5.74C21.56 5.36 22.12 5.01 22.50 5.01C22.81 5.01 23.00 5.25 22.88 5.84L22.29 8.62C21.94 10.26 22.68 10.61 23.38 10.61C24.32 10.61 25.26 9.97 25.91 9.23C26.00 9.13 26.04 9.02 26.04 8.92C26.04 8.78 25.96 8.65 25.80 8.58C25.45 8.93 24.85 9.28 24.33 9.28C24.05 9.28 23.87 9.11 23.95 8.71L24.64 5.49C24.96 4.02 24.43 3.43 23.69 3.43C22.88 3.43 21.98 3.99 21.39 4.83L21.53 4.20C21.66 3.67 21.36 3.43 20.86 3.43C20.27 3.43 19.77 3.72 19.29 4.10C19.01 4.33 19.11 4.76 19.29 4.87ZM25.52 2.95C25.65 3.02 25.76 3.05 25.87 3.05C26.12 3.05 26.33 2.88 26.49 2.56L27.65 0.14C27.51 0.04 27.34 0 27.16 0C26.74 0 26.32 0.28 26.08 0.98ZM26.87 10.61C28.92 10.61 29.74 9.60 29.74 8.25C29.74 6.47 27.44 6.79 27.44 5.31C27.44 4.55 27.87 4.17 28.25 4.17C28.59 4.17 28.88 4.41 28.88 4.93C28.88 5.21 28.78 5.52 28.64 5.68C28.83 5.81 29.02 5.87 29.20 5.88C29.72 5.91 30.18 5.52 30.18 4.73C30.18 3.82 29.61 3.37 28.42 3.37C26.80 3.37 26.03 4.41 26.03 5.53C26.03 7.63 28.34 7.50 28.34 8.57C28.34 9.25 27.76 9.69 27.23 9.69C26.78 9.69 26.35 9.41 26.35 8.76C26.35 8.43 26.46 8.09 26.64 7.88C26.49 7.74 26.31 7.69 26.08 7.69C25.40 7.69 24.99 8.19 24.89 8.76C24.74 9.70 25.37 10.61 26.87 10.61ZM36.33 2.86C36.33 1.39 37.34 0.67 38.28 0.57L36.05 10.43C36.20 10.54 36.47 10.61 36.79 10.61C37.31 10.61 37.86 10.37 38.00 9.72L38.88 5.57C39.28 5.66 39.68 5.81 40.10 5.81C40.82 5.81 41.20 5.10 40.87 4.66C40.29 4.94 39.73 4.76 39.06 4.69L39.84 1.02C40.56 1.34 41.33 1.72 41.89 1.72C42.90 1.72 43.57 0.87 43.26-0.39C41.65 0.32 40.31-0.28 38.75-0.28C37.42-0.28 34.87 0.21 34.87 2.51C34.87 3.18 35.29 3.81 36.02 3.81C36.20 3.81 36.40 3.77 36.61 3.67C36.41 3.44 36.33 3.09 36.33 2.86ZM44.58 3.37C42.63 3.37 41.05 5.81 41.05 8.26C41.05 9.16 41.34 10.61 42.80 10.61C43.60 10.61 44.34 10.02 44.93 9.20C44.91 10.30 45.57 10.61 46.23 10.61C46.98 10.61 47.99 9.97 48.65 9.23C48.73 9.13 48.78 9.02 48.78 8.92C48.78 8.78 48.69 8.65 48.54 8.58C48.19 8.93 47.59 9.28 47.07 9.28C46.70 9.28 46.48 9.03 46.65 8.25L47.63 3.61C47.46 3.50 47.22 3.43 46.97 3.43C46.62 3.43 46.26 3.56 46.02 3.84C45.67 3.53 45.21 3.37 44.58 3.37ZM44.95 8.29C44.58 8.81 43.99 9.17 43.54 9.17C43.11 9.17 42.78 8.86 42.78 8.16C42.78 6.64 43.39 4.42 45.08 4.42C45.29 4.42 45.50 4.45 45.74 4.54ZM49.85 10.61C51.91 10.61 52.72 9.60 52.72 8.25C52.72 6.47 50.43 6.79 50.43 5.31C50.43 4.55 50.86 4.17 51.24 4.17C51.58 4.17 51.87 4.41 51.87 4.93C51.87 5.21 51.77 5.52 51.63 5.68C51.81 5.81 52.01 5.87 52.19 5.88C52.71 5.91 53.17 5.52 53.17 4.73C53.17 3.82 52.60 3.37 51.41 3.37C49.78 3.37 49.01 4.41 49.01 5.53C49.01 7.63 51.32 7.50 51.32 8.57C51.32 9.25 50.75 9.69 50.22 9.69C49.77 9.69 49.34 9.41 49.34 8.76C49.34 8.43 49.45 8.09 49.63 7.88C49.48 7.74 49.29 7.69 49.07 7.69C48.38 7.69 47.98 8.19 47.88 8.76C47.73 9.70 48.36 10.61 49.85 10.61ZM58.16 10.61C59.09 10.61 60.03 9.97 60.69 9.23C60.77 9.13 60.82 9.02 60.82 8.92C60.82 8.78 60.73 8.65 60.58 8.58C60.23 8.93 59.63 9.28 59.11 9.28C58.83 9.28 58.65 9.11 58.73 8.71L59.42 5.49C59.77 3.84 58.80 3.43 58.10 3.43C57.39 3.43 56.77 3.95 56.24 4.70L56.97 1.27C57.08 0.74 56.80 0.50 56.29 0.50C55.54 0.50 54.53 1.18 54.53 1.50C54.53 1.61 54.54 1.75 54.74 1.93C54.96 1.67 55.23 1.75 55.15 2.13L53.37 10.47C53.54 10.58 53.70 10.61 53.96 10.61C54.46 10.61 54.99 10.37 55.13 9.73L56.01 5.75C56.39 5.31 56.81 5.01 57.32 5.01C57.78 5.01 57.75 5.39 57.65 5.84L57.06 8.62C56.71 10.26 57.46 10.61 58.16 10.61ZM61.66 1.62C61.57 2.17 61.98 2.60 62.52 2.60C63.07 2.60 63.53 2.17 63.62 1.62C63.67 1.08 63.27 0.64 62.72 0.64C62.17 0.64 61.71 1.08 61.66 1.62ZM60.38 8.95C60.12 10.22 60.93 10.61 61.63 10.61C62.57 10.61 63.50 9.97 64.16 9.23C64.25 9.13 64.29 9.02 64.29 8.92C64.29 8.78 64.20 8.65 64.05 8.58C63.70 8.93 63.10 9.28 62.58 9.28C62.22 9.28 61.99 9.03 62.16 8.25L63.01 4.20C63.13 3.67 62.85 3.43 62.34 3.43C61.75 3.43 61.25 3.72 60.77 4.10C60.49 4.33 60.59 4.76 60.77 4.87C60.90 4.76 60.98 4.70 61.05 4.70C61.18 4.70 61.24 4.83 61.19 5.05ZM67.47 3.37C65.35 3.37 63.88 6.02 63.88 8.13C63.88 9.45 64.50 10.61 65.94 10.61C68.14 10.61 69.64 7.97 69.64 5.88C69.64 4.51 68.99 3.37 67.47 3.37ZM67.77 4.44C68.35 4.44 68.59 5.01 68.59 5.77C68.59 7.24 67.69 9.39 66.58 9.39C66.09 9.39 65.67 8.92 65.67 7.69C65.67 6.31 66.50 4.44 67.77 4.44ZM70.59 4.87C70.71 4.76 70.80 4.70 70.87 4.70C70.99 4.70 71.06 4.83 71.01 5.05L69.86 10.43C70.03 10.54 70.27 10.61 70.52 10.61C71.02 10.61 71.55 10.37 71.69 9.73L72.55 5.74C72.86 5.36 73.42 5.01 73.79 5.01C74.10 5.01 74.30 5.25 74.17 5.84L73.58 8.62C73.23 10.26 73.98 10.61 74.68 10.61C75.61 10.61 76.55 9.97 77.21 9.23C77.29 9.13 77.34 9.02 77.34 8.92C77.34 8.78 77.25 8.65 77.10 8.58C76.75 8.93 76.15 9.28 75.63 9.28C75.35 9.28 75.17 9.11 75.25 8.71L75.94 5.49C76.26 4.02 75.73 3.43 74.98 3.43C74.17 3.43 73.28 3.99 72.69 4.83L72.83 4.20C72.95 3.67 72.66 3.43 72.16 3.43C71.57 3.43 71.06 3.72 70.59 4.10C70.31 4.33 70.41 4.76 70.59 4.87Z"></path></g><defs data-v-fde0c5aa=""><linearGradient data-v-fde0c5aa="" gradientTransform="rotate(25)" id="cccd722f-3957-4ba8-889a-10ff576f7d81" x1="0%" y1="0%" x2="100%" y2="0%"><stop data-v-fde0c5aa="" offset="0%" stop-color="#0015D6" stop-opacity="1"></stop><stop data-v-fde0c5aa="" offset="100%" stop-color="#0989FB" stop-opacity="1"></stop></linearGradient></defs><g data-v-fde0c5aa="" id="6467b9d3-838f-4704-8f04-e7cd69d4cddb" stroke="none" fill="url(#cccd722f-3957-4ba8-889a-10ff576f7d81)" transform="matrix(1.2079584644888763,0,0,1.2079584644888763,40,129.34391008444035)"><circle cx="25.044" cy="25.043" r="6.956"></circle><circle cx="6.956" cy="25.043" r="6.956"></circle><path d="M.172 2.201H13.74v13.568H.172zM18.432 2.201H32v13.568H18.432z"></path></g><!----></svg>